<?xml version="1.0" encoding="UTF-8"?>
<svg version="1.1" xmlns="http://www.w3.org/2000/svg" width="256" height="256">
<path d="M0 0 C24.85086294 23.80018307 32.87582485 70.08965492 36 103 C36.06703125 103.68690918 36.1340625 104.37381836 36.203125 105.08154297 C37.63362543 120.54539019 38.49059354 137.94120296 28.8125 150.9375 C24.45957048 154.12964831 20.21448888 155.40038118 14.8046875 154.7265625 C1.04432034 150.92889845 -9.79337753 138.0246738 -18 127 C-18 126.34 -18 125.68 -18 125 C-18.7734375 124.6596875 -18.7734375 124.6596875 -19.5625 124.3125 C-22 123 -22 123 -25.0625 120.5625 C-34.47801547 113.85308208 -46.19534889 114.55350217 -57.2421875 114.6015625 C-58.89926277 114.59953598 -60.55633717 114.59661976 -62.21340942 114.59286499 C-65.67116869 114.58846633 -69.12869394 114.59479108 -72.58642578 114.60888672 C-76.98271333 114.62595021 -81.37845007 114.6161398 -85.77471733 114.59816933 C-89.19288149 114.58724148 -92.61091873 114.59081914 -96.02908707 114.5985527 C-97.64833774 114.60053135 -99.26760054 114.59817918 -100.88683701 114.59111404 C-113.91351081 114.54674273 -127.31170502 114.51654414 -137.19921875 124.140625 C-141.32114824 128.29305341 -145.25336484 132.63136972 -149.20898438 136.94140625 C-156.52952735 144.82506792 -164.05753116 152.92310301 -175.0625 154.9375 C-180.12452368 155.01784958 -183.68742413 154.20603444 -187.44140625 150.625 C-194.63873153 141.68742592 -194.53997954 129.78687856 -194.4375 118.875 C-194.43412628 118.17580444 -194.43075256 117.47660889 -194.42727661 116.75622559 C-194.17133435 79.85238745 -185.5273891 27.46968543 -158.37109375 0.1015625 C-150.19531176 -7.14484724 -140.98505726 -10.59078506 -130.0625 -10.5625 C-128.795271 -10.56431274 -128.795271 -10.56431274 -127.50244141 -10.56616211 C-118.88355991 -10.35569924 -110.83674311 -8.29628127 -102.50732422 -6.22509766 C-81.74190651 -1.13412219 -62.52073255 -3.35467025 -42.08984375 -9.14453125 C-27.19498381 -13.2683926 -11.92105039 -9.83924931 0 0 Z M-37 27 C-39.38699285 30.14649057 -39.47251366 33.14113846 -39 37 C-37.20006226 39.69990662 -35.916227 41.5418865 -33 43 C-28.60733038 43.49728335 -26.69948825 43.53221932 -23.125 40.8125 C-20.9355211 37.91466027 -20 36.60496065 -20 33 C-21.30946501 29.36259718 -22.39514357 27.45364232 -25.5 25.125 C-30.13946834 23.03723925 -32.82376818 24.51203211 -37 27 Z M-143.875 42.875 C-147.45643356 48.14181406 -148.64645916 52.64315157 -148 59 C-145.81352118 66.21786473 -142.61078374 70.23742071 -136.1484375 74.109375 C-131.04604076 76.22455038 -124.91930323 75.59055484 -119.75 74 C-115.12536076 70.636626 -110.8312747 66.49382409 -109 61 C-108.49276866 54.78641607 -108.21013871 49.21105927 -112 44 C-116.89579142 39.09400901 -120.55096076 35.90036381 -127.6875 35.6875 C-134.363504 35.77508606 -139.37895284 37.8939565 -143.875 42.875 Z M-59.875 50.75 C-61.57946691 54.15893382 -60.96849323 56.38429194 -60 60 C-57.77716931 63.24875254 -56.38018818 63.89631231 -52.5625 64.9375 C-48.55596849 65.00779003 -47.05645482 64.53249114 -44 62 C-41.89898405 59.3259797 -42.00153024 57.95715315 -42.125 54.5 C-43.09176323 50.63294707 -43.7648792 49.27332813 -47 47 C-52.80673972 45.1467852 -55.59714498 46.75733531 -59.875 50.75 Z M-16 50 C-17.55024464 53.10048928 -17.28992015 55.57894218 -17 59 C-15.20437595 61.75329021 -13.94745078 63.52627461 -11 65 C-7.12785818 65.43023798 -5.47503629 65.31669086 -2.1875 63.125 C0.59649199 60.42055063 0.93464155 59.57733296 1.375 55.6875 C1.30690315 51.90399182 1.30690315 51.90399182 -1.125 49.125 C-7.01354496 44.77259721 -10.42951918 45.46588771 -16 50 Z M-38 72 C-39.41000664 74.82001327 -39.24548451 76.87007255 -39 80 C-37.73711341 82.77835049 -36.6477829 84.49102772 -34.25 86.375 C-30.81792041 87.32835544 -28.42177384 86.91654656 -25 86 C-22.28056571 83.35212977 -20.24178694 80.86859111 -20 77 C-21.11010437 72.55958254 -23.12442403 70.37819434 -27 68 C-32.07884345 67.15352609 -34.37098421 68.47467037 -38 72 Z " fill="#FF5F2F" transform="translate(207,56)"/>
</svg>
