<svg xmlns="http://www.w3.org/2000/svg" viewBox="0 0 512 512" width="512" height="512">
  <path fill="#FF5800" d="M366.2 58.6c-48-26.6-98.8-26.6-146.8-26.6s-99 0-146.8 26.6C26 84.4 0 137.2 0 197.6c0 40 13 77 34.1 107.5 7.1 10.3 12.7 21.6 15.6 34 8 33.7 26.3 63.5 52.5 83.1 7.2 5.4 15.8 8.8 24.8 8.8 19.3 0 36.1-13.4 40.2-32.1 2-8.9 4-17.7 10.3-25.1 8-9.4 19.7-14.9 32.1-14.9 23.3 0 42.1 18.9 42.1 42.1 0 16-9.2 29.8-22.9 37.1l-1.3.7C246.7 457.9 253 480 253 480s6.3-22.1 25.5-41.2l-1.3-.7c-13.7-7.3-22.9-21.1-22.9-37.1 0-23.3 18.9-42.1 42.1-42.1 12.4 0 24.1 5.5 32.1 14.9 6.3 7.4 8.3 16.2 10.3 25.1 4.1 18.7 20.9 32.1 40.2 32.1 9 0 17.6-3.4 24.8-8.8 26.2-19.6 44.5-49.4 52.5-83.1 2.9-12.3 8.5-23.6 15.6-34 21.1-30.5 34.1-67.5 34.1-107.5 0-60.4-26-113.2-72.6-139zM151 250c-17.7 0-32-14.3-32-32s14.3-32 32-32 32 14.3 32 32-14.3 32-32 32zm138.8-16.7c-8.9 9.1-23.6 9.4-32.8.5-9.1-8.9-9.4-23.6-.5-32.8 8.9-9.1 23.6-9.4 32.8-.5 9.1 8.9 9.4 23.6.5 32.8zm29.8-63.1c-8.9 9.1-23.6 9.4-32.8.5-9.1-8.9-9.4-23.6-.5-32.8 8.9-9.1 23.6-9.4 32.8-.5 9.1 8.9 9.4 23.6.5 32.8zm27.1 76.5c-8.9 9.1-23.6 9.4-32.8.5-9.1-8.9-9.4-23.6-.5-32.8 8.9-9.1 23.6-9.4 32.8-.5 9.1 8.9 9.4 23.6.5 32.8zm45.9-44.4c-8.9 9.1-23.6 9.4-32.8.5-9.1-8.9-9.4-23.6-.5-32.8 8.9-9.1 23.6-9.4 32.8-.5 9.1 8.9 9.4 23.6.5 32.8z"/>
</svg>
